
<svg width="16px" height="16px" viewBox="0 0 16 16" version="1.1" xmlns="http://www.w3.org/2000/svg" xmlns:xlink="http://www.w3.org/1999/xlink">
    <!-- Generator: Sketch 49.1 (51147) - http://www.bohemiancoding.com/sketch -->
    <desc>Created with Sketch.</desc>
    <defs></defs>
    <g id="Symbols" stroke="none" stroke-width="1" fill="none" fill-rule="evenodd">
        <g id="FOOTBALL" transform="translate(-136.000000, -13.000000)" fill="#FFFFFF">
            <g id="Activity" transform="translate(136.000000, 13.000000)">
                <path d="M4.8241528,14.239782 C5.77732206,14.7258825 6.85664925,15 8,15 C8.09693618,15 8.19341216,14.9980296 8.28939007,14.9941267 L6.45410156,14.2131348 L5.05114746,13.9685059 L4.8241528,14.239782 Z M4.46780319,14.0447852 C4.47150669,14.0379428 4.47351074,14.0343018 4.47351074,14.0343018 L3.7243042,12.571167 L2.8480835,11.9551392 L2.22365633,11.9551392 C2.80747632,12.8061533 3.57447598,13.5216526 4.46780319,14.0447852 Z M1.76941111,11.1938092 L2.07385254,11.5021667 L2.79022217,11.4332581 L3.53125,10.5644531 L3.51953125,7.48413086 L2.66833496,5.95324707 L1.1690945,6.46379881 C1.05840161,6.9581519 1,7.47225574 1,8 C1,9.15053869 1.27757491,10.2362463 1.76941111,11.1938092 Z M1.45179172,5.52058845 L2.44775391,5.23413086 L3.53308105,3.70263672 L3.53672956,2.60724194 C2.6106352,3.37457714 1.8854466,4.37590196 1.45179172,5.52058845 Z M4.01708648,2.2428087 L4.00036621,2.95410156 L6.45410156,2.96350098 L9.02636719,1.38244629 L9.02636719,1.07471166 C8.69137327,1.02549123 8.34866353,1 8,1 C6.52021455,1 5.14767443,1.45917185 4.01708648,2.2428087 Z M13.2005198,3.31433951 L12.572998,3.44580078 L12.0089111,3.94750977 L12.0296631,6.44030762 L13.3907471,8.17382812 L14.9918074,7.65832829 C14.9116598,5.99072978 14.2479803,4.47614987 13.2005198,3.31433951 Z M14.9805081,8.52635855 L13.6471558,8.87524414 L12.0075684,11.1260986 L12.0075684,13.7400242 C13.6819253,12.5688453 14.8201276,10.6837343 14.9805081,8.52635855 Z M10.4257941,14.5682686 L11.3699951,13.5894775 L11.3665161,11.9551392 L9.60021973,10.963501 L7.04003906,12.0439453 L7.01037598,13.8129883 L9.4890188,14.8412984 C9.81003583,14.7717556 10.1228478,14.6801921 10.4257941,14.5682686 Z M8,16 C3.581722,16 0,12.418278 0,8 C0,3.581722 3.581722,0 8,0 C12.418278,0 16,3.581722 16,8 C16,12.418278 12.418278,16 8,16 Z M6.50616455,11.4857178 L9.019104,10.3658447 L9.01574707,7.96954346 L6.38952637,6.45068359 L4.2520752,7.65155029 L4.25109863,10.0354614 L6.50616455,11.4857178 Z M6.5378418,5.55975342 L9.50604248,7.27093506 L11.2866821,6.27844238 L11.2762451,3.70947266 L9.22973633,2.28112793 L6.53594971,3.68096924 L6.5378418,5.55975342 Z"></path>
            </g>
        </g>
    </g>
</svg>
