
<svg width="36px" height="66px" viewBox="0 0 36 66" version="1.1" xmlns="http://www.w3.org/2000/svg" xmlns:xlink="http://www.w3.org/1999/xlink">
    <!-- Generator: Sketch 49.1 (51147) - http://www.bohemiancoding.com/sketch -->
    <desc>Created with Sketch.</desc>
    <defs></defs>
    <g id="Page-1" stroke="none" stroke-width="1" fill="none" fill-rule="evenodd">
        <g id="960---6-columns-OK" transform="translate(-651.000000, -1155.000000)" fill="#9ABEC1">
            <g id="d" transform="translate(651.000000, 1155.000000)">
                <path d="M18,65.61 C5.99994,65.61 0,57.9000771 0,42.48 C0,35.1599634 1.499985,29.4150209 4.5,25.245 C7.500015,21.0749791 11.99997,18.99 18,18.99 C22.0800204,18.99 26.1599796,20.0099898 30.24,22.05 L30.24,0 L35.46,0 L35.46,64.35 L31.32,64.35 L31.05,61.65 C29.3099913,62.7900057 27.240012,63.7349962 24.84,64.485 C22.439988,65.2350038 20.1600108,65.61 18,65.61 Z M18.27,61.02 C20.1300093,61.02 22.1399892,60.7500027 24.3,60.21 C26.4600108,59.6699973 28.439991,58.9500045 30.24,58.05 L30.24,26.37 C26.1599796,24.5099907 22.4100171,23.58 18.99,23.58 C14.1299757,23.58 10.6500105,25.1399844 8.55,28.26 C6.4499895,31.3800156 5.4,36.0899685 5.4,42.39 C5.4,48.7500318 6.4199898,53.4449848 8.46,56.475 C10.5000102,59.5050151 13.7699775,61.02 18.27,61.02 Z" style="mix-blend-mode: screen;"></path>
            </g>
        </g>
    </g>
</svg>
