
<svg width="39px" height="48px" viewBox="0 0 39 48" version="1.1" xmlns="http://www.w3.org/2000/svg" xmlns:xlink="http://www.w3.org/1999/xlink">
    <!-- Generator: Sketch 49.1 (51147) - http://www.bohemiancoding.com/sketch -->
    <desc>Created with Sketch.</desc>
    <defs></defs>
    <g id="Page-1" stroke="none" stroke-width="1" fill="none" fill-rule="evenodd">
        <g id="960---6-columns-OK" transform="translate(-661.000000, -840.000000)" fill="#3ADDEA">
            <g id="o" transform="translate(661.000000, 840.000000)">
                <path d="M19.49,47.26 C6.8299367,47.26 0.5,39.4900777 0.5,23.95 C0.5,8.4099223 6.8299367,0.64 19.49,0.64 C32.1500633,0.64 38.48,8.4099223 38.48,23.95 C38.48,39.4900777 32.1500633,47.26 19.49,47.26 Z M19.49,42.76 C24.3500243,42.76 27.8299895,41.2000156 29.93,38.08 C32.0300105,34.9599844 33.08,30.2500315 33.08,23.95 C33.08,17.6499685 32.0300105,12.9400156 29.93,9.82 C27.8299895,6.6999844 24.3500243,5.14 19.49,5.14 C14.6299757,5.14 11.1500105,6.6999844 9.05,9.82 C6.9499895,12.9400156 5.9,17.6499685 5.9,23.95 C5.9,30.2500315 6.9499895,34.9599844 9.05,38.08 C11.1500105,41.2000156 14.6299757,42.76 19.49,42.76 Z" style="mix-blend-mode: screen;"></path>
            </g>
        </g>
    </g>
</svg>
