
<svg width="892px" height="380px" viewBox="0 0 892 380" version="1.1" xmlns="http://www.w3.org/2000/svg" xmlns:xlink="http://www.w3.org/1999/xlink">
    <!-- Generator: Sketch 49.1 (51147) - http://www.bohemiancoding.com/sketch -->
    <desc>Created with Sketch.</desc>
    <defs>
        <linearGradient x1="98.9948922%" y1="2.54517231%" x2="4.93344741%" y2="136.475101%" id="linearGradient-1">
            <stop stop-color="#36F0E3" stop-opacity="0.659986413" offset="0%"></stop>
            <stop stop-color="#1990DD" offset="100%"></stop>
        </linearGradient>
    </defs>
    <g id="Page-1" stroke="none" stroke-width="1" fill="none" fill-rule="evenodd">
        <g id="960---6-columns-copy" transform="translate(-34.000000, -413.000000)" fill="url(#linearGradient-1)">
            <g id="Rectangle" transform="translate(34.000000, 413.000000)">
                <rect x="0" y="0" width="892" height="380"></rect>
                <path d="M33,67 L67.2,67 C74.6400372,67 80.9699739,67.7199928 86.19,69.16 C91.4100261,70.6000072 95.819982,73.119982 99.42,76.72 C102.300014,79.6000144 104.519992,83.3499769 106.08,87.97 C107.640008,92.5900231 108.42,97.8399706 108.42,103.72 C108.42,116.680065 105.360031,126.399968 99.24,132.88 C92.9999688,139.480033 83.5200636,142.78 70.8,142.78 L43.8,142.78 L43.8,190.12 L33,190.12 L33,67 Z M66.48,133.24 C73.080033,133.24 78.1499823,132.730005 81.69,131.71 C85.2300177,130.689995 88.199988,128.980012 90.6,126.58 C93.000012,124.179988 94.7099949,121.180018 95.73,117.58 C96.7500051,113.979982 97.26,109.480027 97.26,104.08 C97.26,95.079955 95.2200204,88.2400234 91.14,83.56 C88.739988,80.7999862 85.6800186,78.9100051 81.96,77.89 C78.2399814,76.8699949 72.9600342,76.36 66.12,76.36 L43.8,76.36 L43.8,133.24 L66.48,133.24 Z" id="P" style="mix-blend-mode: overlay;"></path>
            </g>
        </g>
    </g>
</svg>
