
<svg width="40px" height="62px" viewBox="0 0 40 62" version="1.1" xmlns="http://www.w3.org/2000/svg" xmlns:xlink="http://www.w3.org/1999/xlink">
    <!-- Generator: Sketch 49.1 (51147) - http://www.bohemiancoding.com/sketch -->
    <desc>Created with Sketch.</desc>
    <defs></defs>
    <g id="Page-1" stroke="none" stroke-width="1" fill="none" fill-rule="evenodd">
        <g id="960---6-columns-OK" transform="translate(-64.000000, -845.000000)" fill="#9ABEC1">
            <g id="r" transform="translate(64.000000, 845.000000)">
                <path d="M0,0 L17.19,0 C21.2700204,0 24.6299868,0.4199958 27.27,1.26 C29.9100132,2.1000042 32.0099922,3.419991 33.57,5.22 C36.4500144,8.5200165 37.89,12.8999727 37.89,18.36 C37.89,27.8400474 33.9600393,33.779988 26.1,36.18 L39.24,61.56 L33.39,61.56 L21.06,37.17 C19.859994,37.2900006 18.5400072,37.35 17.1,37.35 L5.4,37.35 L5.4,61.56 L0,61.56 L0,0 Z M17.46,32.58 C22.6200258,32.58 26.3099889,31.5000108 28.53,29.34 C31.0500126,26.8799877 32.31,23.1900246 32.31,18.27 C32.31,15.9899886 32.0550026,14.0550079 31.545,12.465 C31.0349974,10.874992 30.2400054,9.480006 29.16,8.28 C28.0799946,7.079994 26.5500099,6.180003 24.57,5.58 C22.5899901,4.979997 20.0100159,4.68 16.83,4.68 L5.4,4.68 L5.4,32.58 L17.46,32.58 Z" style="mix-blend-mode: overlay;"></path>
            </g>
        </g>
    </g>
</svg>
