
<svg width="16px" height="16px" viewBox="0 0 16 16" version="1.1" xmlns="http://www.w3.org/2000/svg" xmlns:xlink="http://www.w3.org/1999/xlink">
    <!-- Generator: Sketch 49.1 (51147) - http://www.bohemiancoding.com/sketch -->
    <desc>Created with Sketch.</desc>
    <defs></defs>
    <g id="Symbols" stroke="none" stroke-width="1" fill="none" fill-rule="evenodd">
        <g id="LOVE-SING" transform="translate(-134.000000, -13.000000)" fill="#FFFFFF">
            <g id="Group-3">
                <g id="Smileys-&amp;-People" transform="translate(134.000000, 13.000000)">
                    <path d="M8,16 C3.581722,16 0,12.418278 0,8 C0,3.581722 3.581722,0 8,0 C12.418278,0 16,3.581722 16,8 C16,12.418278 12.418278,16 8,16 Z M8,15 C11.8659932,15 15,11.8659932 15,8 C15,4.13400675 11.8659932,1 8,1 C4.13400675,1 1,4.13400675 1,8 C1,11.8659932 4.13400675,15 8,15 Z M5.75,7 C5.33578644,7 5,6.55228475 5,6 C5,5.44771525 5.33578644,5 5.75,5 C6.16421356,5 6.5,5.44771525 6.5,6 C6.5,6.55228475 6.16421356,7 5.75,7 Z M10.25,7 C9.83578644,7 9.5,6.55228475 9.5,6 C9.5,5.44771525 9.83578644,5 10.25,5 C10.6642136,5 11,5.44771525 11,6 C11,6.55228475 10.6642136,7 10.25,7 Z M3,8.16342412 C3,7.57976654 5.5,8.74708171 8,8.74708171 C10.5,8.74708171 13,7.57976654 13,8.16342412 C13,8.74708171 12,14 8,14 C4,14 3,8.74708171 3,8.16342412 Z"></path>
                </g>
            </g>
        </g>
    </g>
</svg>
