
<svg width="16px" height="16px" viewBox="0 0 16 16" version="1.1" xmlns="http://www.w3.org/2000/svg" xmlns:xlink="http://www.w3.org/1999/xlink">
    <!-- Generator: Sketch 49.1 (51147) - http://www.bohemiancoding.com/sketch -->
    <desc>Created with Sketch.</desc>
    <defs></defs>
    <g id="Page-1" stroke="none" stroke-width="1" fill="none" fill-rule="evenodd">
        <g id="960---6-columns-OK" transform="translate(-389.000000, -735.000000)" fill="#FFFFFF">
            <g id="Star-Copy" transform="translate(389.000000, 735.000000)">
                <path d="M15.3516983,5.26529199 L10.6763021,5.26529199 C10.3967099,5.26682775 10.1476087,5.0890005 10.058239,4.8240718 L8.61806313,0.441738029 C8.52764101,0.177519184 8.27926288,0 8,0 C7.72073712,0 7.47235899,0.177519184 7.38193687,0.441738029 L5.94176105,4.8240718 C5.8523913,5.0890005 5.60329013,5.26682775 5.32369791,5.26529199 L0.648301671,5.26529199 C0.370508794,5.25905844 0.121023721,5.4344281 0.0328302158,5.69792316 C-0.0553632897,5.96141822 0.0382862265,6.25163725 0.263860488,6.41388396 L4.05799925,9.13986767 C4.28217309,9.29907048 4.3768186,9.5855229 4.2916212,9.84694373 L2.8455309,14.2487953 C2.78338254,14.4451516 2.81948969,14.6594164 2.94255687,14.8245608 C3.06562405,14.9897053 3.26062279,15.0855625 3.46655127,15.0821455 C3.60387469,15.0815054 3.7374504,15.0372908 3.84803522,14.9558713 L7.61555882,12.2494054 C7.84548561,12.0849938 8.15451439,12.0849938 8.38444118,12.2494054 L12.1519648,14.9558713 C12.2625496,15.0372908 12.3961253,15.0815054 12.5334487,15.0821455 C12.7393772,15.0855625 12.9343759,14.9897053 13.0574431,14.8245608 C13.1805103,14.6594164 13.2166175,14.4451516 13.1544691,14.2487953 L11.7083788,9.84694373 C11.6231814,9.5855229 11.7178269,9.29907048 11.9420008,9.13986767 L15.7361395,6.41388396 C15.9617138,6.25163725 16.0553633,5.96141822 15.9671698,5.69792316 C15.8789763,5.4344281 15.6294912,5.25905844 15.3516983,5.26529199 Z"></path>
            </g>
        </g>
    </g>
</svg>
