
<svg width="35px" height="46px" viewBox="0 0 35 46" version="1.1" xmlns="http://www.w3.org/2000/svg" xmlns:xlink="http://www.w3.org/1999/xlink">
    <!-- Generator: Sketch 49.1 (51147) - http://www.bohemiancoding.com/sketch -->
    <desc>Created with Sketch.</desc>
    <defs></defs>
    <g id="Page-1" stroke="none" stroke-width="1" fill="none" fill-rule="evenodd">
        <g id="960---6-columns-OK" transform="translate(-64.000000, -1175.000000)" fill="#9ABEC1">
            <g id="u" transform="translate(64.000000, 1175.000000)">
                <path d="M14.76,45.36 C12.4199883,45.36 10.2900096,45.0450031 8.37,44.415 C6.4499904,43.7849968 4.890006,42.870006 3.69,41.67 C2.4299937,40.4099937 1.500003,38.8950088 0.9,37.125 C0.299997,35.3549911 0,33.1500132 0,30.51 L0,0 L5.22,0 L5.22,29.16 C5.22,31.4400114 5.41499805,33.2549932 5.805,34.605 C6.19500195,35.9550067 6.8399955,37.0799955 7.74,37.98 C9.4800087,39.7200087 12.0899826,40.59 15.57,40.59 C17.7300108,40.59 20.009988,40.290003 22.41,39.69 C24.810012,39.089997 27.1199889,38.2200057 29.34,37.08 L29.34,0 L34.56,0 L34.56,44.1 L30.42,44.1 L30.06,40.77 C25.0199748,43.8300153 19.9200258,45.36 14.76,45.36 Z" style="mix-blend-mode: overlay;"></path>
            </g>
        </g>
    </g>
</svg>
